<?xml version="1.0" standalone="no"?>
<!DOCTYPE svg PUBLIC "-//W3C//DTD SVG 20010904//EN"
 "http://www.w3.org/TR/2001/REC-SVG-20010904/DTD/svg10.dtd">
<svg version="1.0" xmlns="http://www.w3.org/2000/svg"
 width="155.000000pt" height="155.000000pt" viewBox="0 0 155.000000 155.000000"
 preserveAspectRatio="xMidYMid meet">
<metadata>
Created by potrace 1.11, written by Peter Selinger 2001-2013
</metadata>
<g transform="translate(0.000000,155.000000) scale(0.100000,-0.100000)"
fill="#000000" stroke="none">
<path d="M508 1142 l-28 -3 0 -88 c0 -71 3 -88 15 -88 9 0 15 10 15 23 0 35
17 38 34 6 16 -30 53 -42 40 -13 -7 15 -8 31 -3 91 4 59 -16 79 -73 72z m40
-60 c3 -27 0 -32 -17 -32 -16 0 -21 6 -21 28 0 53 33 56 38 4z"/>
<path d="M360 1126 c0 -16 202 -626 224 -676 68 -154 -83 353 -173 583 -41
104 -51 122 -51 93z"/>
<path d="M630 1096 c0 -7 -7 -19 -15 -26 -9 -7 -15 -29 -15 -51 0 -32 5 -42
24 -51 27 -12 61 -4 51 12 -3 5 -15 10 -26 10 -10 0 -19 5 -19 11 0 7 9 9 21
6 15 -4 23 0 26 12 4 17 6 17 28 -3 16 -14 20 -23 12 -28 -6 -4 -15 -4 -19 -2
-4 3 -8 0 -8 -5 0 -22 51 -20 64 2 9 15 6 22 -19 43 -28 23 -29 24 -7 24 12 0
22 5 22 10 0 14 -58 12 -62 -2 -7 -20 -36 13 -30 34 3 12 -1 18 -12 18 -9 0
-16 -6 -16 -14z m20 -56 c0 -5 -4 -10 -10 -10 -5 0 -10 5 -10 10 0 6 5 10 10
10 6 0 10 -4 10 -10z"/>
<path d="M772 1038 c2 -46 7 -73 16 -76 9 -3 12 16 12 72 0 62 -3 76 -15 76
-13 0 -15 -12 -13 -72z"/>
<path d="M901 1082 c-9 -17 -16 -20 -29 -13 -19 10 -62 -3 -62 -18 0 -21 13
-41 26 -41 8 0 14 -4 14 -10 0 -5 -9 -10 -20 -10 -24 0 -27 -18 -4 -27 21 -8
64 13 64 31 0 8 -12 24 -27 35 l-28 20 33 1 c31 0 32 -2 32 -39 0 -31 4 -41
21 -46 12 -4 26 -2 32 4 7 7 14 7 23 0 7 -5 24 -7 39 -3 24 6 26 10 23 53 -3
44 -5 46 -36 49 -18 2 -32 -1 -32 -7 0 -6 9 -11 20 -11 11 0 20 -5 20 -12 0
-6 -3 -8 -6 -5 -10 10 -44 -12 -44 -28 0 -8 -7 -15 -15 -15 -10 0 -15 10 -15
30 0 20 5 30 15 30 8 0 15 5 15 10 0 6 -5 10 -11 10 -7 0 -17 8 -24 17 -11 15
-13 15 -24 -5z m109 -88 c0 -8 -4 -12 -10 -9 -5 3 -10 10 -10 16 0 5 5 9 10 9
6 0 10 -7 10 -16z"/>
<path d="M1164 1065 c-21 -15 -21 -72 -1 -92 10 -10 20 -11 38 -4 15 5 32 5
41 0 9 -5 26 -5 39 -1 23 9 23 9 -4 16 -34 8 -35 26 -2 26 17 0 25 5 25 18 0
24 -19 42 -46 42 -24 0 -34 -17 -34 -59 0 -20 -5 -27 -20 -27 -11 0 -20 3 -21
6 0 3 -2 15 -5 28 -3 17 2 25 21 32 14 5 25 11 25 14 0 11 -41 12 -56 1z m106
-25 c0 -5 -4 -10 -10 -10 -5 0 -10 5 -10 10 0 6 5 10 10 10 6 0 10 -4 10 -10z"/>
<path d="M1057 1063 c-8 -16 -1 -93 8 -96 6 -1 11 17 13 41 4 53 27 52 27 -1
1 -35 10 -56 20 -45 9 9 12 73 3 91 -9 17 -63 25 -71 10z"/>
<path d="M280 991 c-67 -45 -120 -137 -120 -210 0 -16 -4 -21 -14 -18 -8 3
-22 -1 -33 -8 -17 -14 -17 -14 2 -16 11 -1 25 -2 32 -2 6 0 14 -16 18 -35 10
-52 48 -122 87 -159 34 -33 110 -72 141 -73 16 0 21 -10 18 -37 -1 -7 5 -13
14 -13 9 0 15 9 15 25 0 19 5 25 23 25 42 0 68 12 65 29 -3 13 -15 15 -71 12
-57 -3 -76 1 -120 23 -58 28 -105 84 -127 150 -15 47 -8 141 14 184 22 42 74
92 109 104 16 6 27 17 27 29 0 28 -30 24 -80 -10z"/>
<path d="M334 955 c-48 -20 -102 -90 -113 -149 -6 -28 -9 -58 -7 -66 1 -8 6
-32 11 -53 9 -47 84 -132 128 -146 44 -14 85 -17 130 -8 32 7 36 11 28 26 -8
14 -17 17 -48 12 -112 -20 -213 72 -213 192 0 56 74 157 116 157 14 0 20 35 6
44 -4 2 -21 -2 -38 -9z"/>
<path d="M516 911 c-4 -5 0 -12 6 -14 10 -4 10 -6 1 -6 -18 -1 -16 -18 2 -18
8 0 15 8 15 18 0 21 -16 34 -24 20z"/>
<path d="M563 891 c0 -15 1 -18 4 -8 2 9 9 17 14 17 5 0 9 4 9 8 0 22 -26 5
-27 -17z"/>
<path d="M594 888 c-4 -18 -8 -35 -9 -38 -1 -3 -7 -23 -13 -45 -16 -52 -15
-62 3 -62 9 0 18 11 21 24 9 33 47 31 63 -4 9 -19 15 -23 23 -15 8 8 8 21 0
49 -6 21 -16 57 -22 81 -9 35 -15 42 -35 42 -18 0 -25 -7 -31 -32z m44 -69
c-7 -20 -27 9 -21 31 l6 24 9 -24 c5 -13 7 -27 6 -31z"/>
<path d="M355 900 c-76 -31 -112 -149 -70 -231 18 -34 70 -75 108 -84 45 -12
97 3 97 26 0 17 -5 19 -38 16 -81 -10 -142 47 -142 132 0 35 6 49 33 75 17 18
38 35 46 37 9 3 12 12 8 22 -7 19 -12 20 -42 7z"/>
<path d="M1143 819 c2 -90 22 -96 23 -7 1 46 -3 68 -12 72 -9 4 -12 -12 -11
-65z"/>
<path d="M367 839 c-42 -25 -55 -97 -26 -150 27 -51 145 -68 132 -20 -3 13
-14 18 -40 17 -48 -1 -82 40 -67 81 5 16 19 32 32 38 25 11 26 38 2 42 -8 2
-23 -2 -33 -8z"/>
<path d="M710 835 c-8 -9 -10 -28 -6 -50 7 -33 14 -40 45 -36 7 2 10 -2 6 -8
-3 -6 -15 -11 -26 -11 -10 0 -19 -4 -19 -9 0 -16 26 -20 51 -7 21 10 24 20 27
74 l3 62 -34 0 c-19 0 -40 -7 -47 -15z m50 -41 c0 -31 -2 -35 -15 -24 -16 13
-20 42 -8 53 15 15 23 5 23 -29z"/>
<path d="M805 803 c0 -36 4 -48 15 -48 9 0 16 10 16 23 1 12 2 29 3 38 0 9 8
14 19 12 12 -2 16 -11 14 -30 -2 -19 3 -31 21 -43 24 -15 57 -12 57 7 0 5 -4
7 -9 4 -4 -3 -17 1 -27 9 -18 13 -17 14 14 15 36 0 36 -1 22 34 -10 28 -47 35
-68 14 -9 -9 -12 -9 -12 0 0 7 -14 12 -32 12 -33 0 -33 -1 -33 -47z m120 17
c3 -5 -1 -10 -9 -10 -9 0 -16 5 -16 10 0 6 4 10 9 10 6 0 13 -4 16 -10z"/>
<path d="M967 831 c-5 -21 9 -41 30 -41 7 0 13 -4 13 -10 0 -9 -14 -14 -32
-11 -5 0 -8 -3 -8 -9 0 -11 13 -14 45 -11 35 3 40 3 61 -2 45 -11 70 36 28 55
-29 14 -31 28 -4 28 11 0 20 5 20 10 0 6 -15 10 -34 10 -44 0 -58 -35 -20 -52
26 -12 31 -24 12 -31 -18 -6 -38 3 -38 17 0 7 -12 19 -27 26 l-28 14 28 4 c39
5 34 22 -7 22 -25 0 -35 -5 -39 -19z"/>
<path d="M1190 831 c-14 -28 -13 -46 8 -70 36 -43 84 2 68 64 -5 20 -13 25
-36 25 -19 0 -33 -7 -40 -19z m50 -31 c0 -20 -5 -30 -15 -30 -15 0 -21 40 -8
53 14 15 23 6 23 -23z"/>
<path d="M1285 808 c1 -51 13 -79 25 -57 5 8 7 29 5 47 -2 21 2 32 11 32 8 0
14 -16 16 -42 4 -58 23 -50 23 10 l0 47 -41 3 -40 3 1 -43z"/>
<path d="M396 784 c-32 -32 -14 -84 29 -84 32 0 35 7 18 56 -16 48 -23 52 -47
28z"/>
<path d="M636 693 c-3 -4 -6 -44 -6 -90 0 -67 3 -83 15 -83 9 0 15 9 15 24 0
18 7 25 29 29 22 5 31 13 35 34 6 27 1 71 -8 80 -7 8 -74 12 -80 6z m59 -43
c7 -23 -12 -63 -26 -55 -15 10 -11 75 5 75 8 0 17 -9 21 -20z"/>
<path d="M927 663 c-4 -3 -7 -37 -7 -75 0 -50 4 -68 13 -68 10 0 13 18 13 69
-1 68 -6 88 -19 74z"/>
<path d="M832 593 c3 -66 4 -68 30 -71 22 -3 30 2 39 22 15 32 3 77 -21 83
-11 3 -20 12 -20 19 0 8 -7 14 -15 14 -13 0 -15 -12 -13 -67z m48 -24 c0 -16
-4 -29 -10 -29 -5 0 -10 16 -10 36 0 21 4 33 10 29 6 -3 10 -19 10 -36z"/>
<path d="M963 593 c1 -42 6 -68 15 -71 9 -3 12 15 12 67 0 56 -3 71 -15 71
-12 0 -14 -13 -12 -67z"/>
<path d="M1075 651 c-3 -5 -1 -12 4 -15 4 -3 5 -23 2 -43 -8 -43 -4 -73 10
-73 9 0 13 36 9 74 -1 11 3 15 9 12 6 -4 11 -19 11 -34 0 -42 11 -50 73 -51
l57 0 0 48 c0 55 -12 65 -65 55 -24 -4 -34 -2 -38 10 -8 20 -27 21 -27 1 0 -8
-5 -15 -11 -15 -6 0 -9 9 -6 20 5 21 -16 29 -28 11z m145 -50 c0 -5 -9 -11
-20 -14 -12 -3 -20 -14 -20 -26 0 -12 -6 -21 -15 -21 -19 0 -21 56 -2 63 21 9
57 8 57 -2z m4 -52 c-3 -5 -10 -7 -15 -3 -5 3 -7 10 -3 15 3 5 10 7 15 3 5 -3
7 -10 3 -15z"/>
<path d="M1270 590 c0 -51 3 -71 12 -68 16 6 16 130 0 136 -9 3 -12 -17 -12
-68z"/>
<path d="M742 576 c3 -51 3 -51 39 -54 l36 -3 -2 43 c-4 66 -4 68 -15 68 -5 0
-10 -20 -10 -45 0 -25 -4 -45 -10 -45 -11 0 -12 8 -12 56 0 20 -5 31 -14 31
-12 0 -14 -12 -12 -51z"/>
<path d="M1016 615 c-32 -32 -12 -95 29 -95 14 0 25 5 25 10 0 6 -9 10 -21 10
-17 0 -20 5 -17 33 2 24 8 32 21 31 10 -1 16 3 14 10 -6 18 -33 18 -51 1z"/>
<path d="M1310 575 c0 -41 4 -55 15 -55 8 0 14 9 13 23 -2 44 2 57 17 57 9 0
15 -9 15 -24 0 -42 11 -56 41 -56 16 0 29 5 29 10 0 6 -9 10 -20 10 -11 0 -20
5 -20 10 0 6 9 10 20 10 23 0 28 38 8 58 -15 15 -48 16 -48 1 0 -5 -5 -7 -10
-4 -6 4 -22 8 -35 11 -24 4 -25 3 -25 -51z m100 19 c0 -8 -5 -12 -10 -9 -6 4
-8 11 -5 16 9 14 15 11 15 -7z"/>
</g>
</svg>
